<?xml version="1.0" encoding="utf-8"?>
<!-- Generator: Adobe Adobe Illustrator 24.2.0, SVG Export Plug-In . SVG Version: 6.00 Build 0)  -->
<svg version="1.1" id="Layer_1" xmlns="http://www.w3.org/2000/svg" xmlns:xlink="http://www.w3.org/1999/xlink" x="0px" y="0px"
	 width="1000px" height="1000px" viewBox="0 0 1000 1000" style="enable-background:new 0 0 1000 1000;" xml:space="preserve">
<style type="text/css">
	.st0{fill:#FFFFFF;}
	.st1{fill:#0FE046;}
</style>
<g>
	<g>
		<path d="M289.68,546.81c0-8.17-1.63-11.82-6.65-11.82c-5.43,0-8.36,4.1-8.36,13.64v24.52h-12.73v-47.24h12.26v7.72h0.45
			c0,0,3.19-9.09,12.73-9.09c7.64,0,11.7,3.64,13.53,9.17l0.08-0.08h0.45c0,0,4.1-9.09,13.64-9.09c11.82,0,14.97,8.62,14.97,19.54
			v29.08h-12.73v-26.34c0-8.17-1.63-11.82-6.61-11.82c-5.43,0-8.36,4.1-8.36,13.64v24.52h-12.73v-26.34L289.68,546.81L289.68,546.81
			z"/>
		<path d="M341,508.21c4,0,7.27,3.27,7.27,7.27c0,4-3.27,7.27-7.27,7.27c-4,0-7.27-3.27-7.27-7.27
			C333.73,511.48,337,508.21,341,508.21z M347.38,573.17h-12.73v-47.24h12.73V573.17z"/>
		<path d="M399.16,573.17h-12.26v-6.35h-0.45c0,0-4.1,7.72-14.53,7.72c-13.64,0-20.45-11.82-20.45-24.98
			c0-13.18,6.8-24.98,20.45-24.98c10,0,14.07,6.35,14.07,6.35h0.45v-21.36h12.73v63.6H399.16z M375.54,534.1
			c-7.72,0-11.36,6.91-11.36,15.44c0,8.55,3.64,15.44,11.36,15.44c7.72,0,11.36-6.91,11.36-15.44S383.26,534.1,375.54,534.1z"/>
		<path d="M426.86,524.56c15.55,0,22.73,11.18,22.73,24.98c0,1.11-0.08,2.74-0.08,2.74h-33.45c0.53,7.27,3.64,12.73,11.26,12.73
			c7.72,0,9.09-7.27,9.09-7.27h12.73c0,0-2.74,16.79-22.27,16.79c-15.89,0-23.63-11.18-23.63-24.98
			C403.25,535.73,411.31,524.56,426.86,524.56z M416.4,544.09h20.06c-0.83-5.82-3.35-10-9.62-10
			C420.59,534.1,417.51,538.27,416.4,544.09z"/>
		<path d="M453.65,525.92h12.28v7.72h0.45c0,0,4.1-9.09,14.53-9.09c13.19,0,16.79,8.62,16.79,19.54v29.08h-12.73v-26.36
			c0-8.17-2.28-11.82-8.17-11.82c-6.8,0-10.44,4.1-10.44,13.64v24.52h-12.73v-47.24h0.03v0.01H453.65z"/>
		<path d="M524.09,525.92h12.26v7.72h0.45c0,0,4.1-9.09,14.53-9.09c13.19,0,16.79,8.62,16.79,19.54v29.08H555.4v-26.36
			c0-8.17-2.28-11.82-8.17-11.82c-6.8,0-10.44,4.1-10.44,13.64v24.52h-12.73v-47.24h0.05L524.09,525.92L524.09,525.92z"/>
		<path d="M573.12,540.45c0.71-12.08,10.44-15.89,21.36-15.89c11.36,0,20.45,4.1,20.45,16.34v32.27H602.2v-9.09h-0.45
			c0,0-2.93,10.44-14.97,10.44c-8.62,0-14.97-4-14.97-12.73c0-8.81,7.27-12.81,15.09-14.82c7.91-2.01,15.35-2.63,15.35-7.91
			c0-3.72-2.74-5.9-7.72-5.9c-5.43,0-8.43,2.16-8.62,7.27C585.88,540.45,573.12,540.45,573.12,540.45z M592.21,553.17
			c-4.1,0.99-7.53,3.08-7.53,7.27c0,3.64,2.56,5.9,6.61,5.9c8.62,0,10.91-10,10.91-17C600.12,551.27,595.84,552.27,592.21,553.17z"
			/>
		<path d="M647.2,546.81c0-8.17-1.63-11.82-6.65-11.82c-5.43,0-8.36,4.1-8.36,13.64v24.52h-12.73v-47.24h12.28v7.72h0.45
			c0,0,3.19-9.09,12.73-9.09c7.64,0,11.7,3.64,13.53,9.17l0.08-0.08h0.45c0,0,4.1-9.09,13.64-9.09c11.82,0,14.97,8.62,14.97,19.54
			v29.08h-12.73v-26.34c0-8.17-1.63-11.82-6.61-11.82c-5.43,0-8.36,4.1-8.36,13.64v24.52h-12.73v-26.34L647.2,546.81L647.2,546.81z"
			/>
		<path d="M715.32,524.56c15.55,0,22.73,11.18,22.73,24.98c0,1.11-0.08,2.74-0.08,2.74h-33.45c0.53,7.27,3.64,12.73,11.26,12.73
			c7.72,0,9.09-7.27,9.09-7.27h12.73c0,0-2.74,16.79-22.27,16.79c-15.89,0-23.63-11.18-23.63-24.98
			C691.72,535.73,699.82,524.56,715.32,524.56z M704.88,544.09h20.06c-0.83-5.82-3.35-10-9.62-10
			C709.05,534.1,705.98,538.27,704.88,544.09z"/>
	</g>
	<g>
		<path class="st1" d="M569.4,446.01v34.1c0,2.32-1.87,4.22-4.22,4.22h-20.31c-2.32,0-4.22-1.87-4.22-4.22V457.7
			c0-2.77-1.11-5.46-3.08-7.43l-19.84-19.84c-1.25-1.25-3.41-0.37-3.41,1.41v48.27c0,2.32-1.87,4.22-4.22,4.22h-20.31
			c-2.32,0-4.22-1.87-4.22-4.22V457.7c0-2.77-1.11-5.46-3.08-7.43l-19.84-19.84c-1.25-1.25-3.41-0.37-3.41,1.41v48.27
			c0,2.32-1.87,4.22-4.22,4.22h-20.31c-2.32,0-4.22-1.87-4.22-4.22V388.4c0-2.32,1.87-4.22,4.22-4.22h20.58
			c1.09,0,2.14,0.43,2.9,1.2l24.02,23.95c1.25,1.25,3.41,0.37,3.41-1.41v-19.54c0-2.32,1.87-4.22,4.22-4.22h20.58
			c1.09,0,2.14,0.43,2.9,1.2l52.86,52.88C568.25,440.33,569.4,443.12,569.4,446.01z"/>
		<path class="st1" d="M569.4,388.4v31.25c0,1.41-1.71,2.14-2.71,1.11l-24.84-24.84c-0.75-0.75-1.15-1.76-1.15-2.8v-4.72
			c0-2.32,1.87-4.22,4.22-4.22h20.28C567.5,384.18,569.4,386.08,569.4,388.4z"/>
	</g>
	<g>
		<path class="st1" d="M277.01,610.98c0,2.9-2.28,4.58-6.61,4.58h-8.42v-16.94h7.94c4.08,0,6.24,1.71,6.24,4.39
			c0,1.74-0.85,3.04-2.16,3.72C275.76,607.37,277.01,608.78,277.01,610.98z M265.1,601.11v4.67h4.45c2.16,0,3.41-0.78,3.41-2.34
			c0-1.59-1.23-2.37-3.41-2.37h-4.45V601.11z M273.83,610.65c0-1.68-1.29-2.44-3.64-2.44h-5.09v4.87h5.09
			C272.56,613.13,273.83,612.37,273.83,610.65z"/>
		<path class="st1" d="M283.14,598.65h3.13v14.26h8.84v2.65h-12v-16.9L283.14,598.65L283.14,598.65z"/>
		<path class="st1" d="M298.89,607.11c0-5.01,3.86-8.71,9.11-8.71c5.24,0,9.11,3.68,9.11,8.71c0,5.04-3.86,8.71-9.11,8.71
			C302.76,615.83,298.89,612.13,298.89,607.11z M313.96,607.11c0-3.46-2.56-5.95-5.95-5.95c-3.41,0-5.95,2.49-5.95,5.95
			s2.56,5.95,5.95,5.95C311.41,613.07,313.96,610.57,313.96,607.11z"/>
		<path class="st1" d="M322.02,607.11c0-5.06,3.86-8.71,9.06-8.71c2.76,0,5.12,0.99,6.69,2.84l-2.04,1.9
			c-1.23-1.34-2.76-1.98-4.53-1.98c-3.52,0-6.05,2.46-6.05,5.95c0,3.49,2.56,5.95,6.05,5.95c1.77,0,3.3-0.64,4.53-2.01l2.04,1.93
			c-1.59,1.85-3.94,2.84-6.73,2.84C325.89,615.84,322.02,612.16,322.02,607.11z"/>
		<path class="st1" d="M349.41,608.49l-2.68,2.76v4.34h-3.13v-16.93h3.13v8.69l8.36-8.69h3.54l-7.1,7.55l7.55,9.35h-3.68
			L349.41,608.49z"/>
		<path class="st1" d="M362.17,607.11c0-5.06,3.86-8.71,9.06-8.71c2.76,0,5.12,0.99,6.69,2.84l-2.04,1.9
			c-1.23-1.34-2.76-1.98-4.53-1.98c-3.52,0-6.05,2.46-6.05,5.95c0,3.49,2.56,5.95,6.05,5.95c1.77,0,3.3-0.64,4.53-2.01l2.04,1.93
			c-1.59,1.85-3.94,2.84-6.73,2.84C366.05,615.84,362.17,612.16,362.17,607.11z"/>
		<path class="st1" d="M398.8,598.65v16.94h-3.13v-7.27h-8.76v7.27h-3.13v-16.94h3.13v6.99h8.76v-6.99H398.8z"/>
		<path class="st1" d="M417.07,611.65h-8.47l-1.67,3.91h-3.24l7.61-16.94h3.08l7.64,16.94h-3.3L417.07,611.65z M416.06,609.19
			l-3.19-7.39l-3.16,7.39H416.06z"/>
		<path class="st1" d="M426.99,598.65h3.13v16.94h-3.13V598.65z"/>
		<path class="st1" d="M452.53,598.65v16.94h-2.6l-9.32-11.47v11.47h-3.12v-16.94h2.6l9.32,11.47v-11.47H452.53z"/>
		<path class="st1" d="M469.31,598.65h3.13v16.94h-3.13V598.65z"/>
		<path class="st1" d="M479.82,598.65h7.39c5.49,0,9.25,3.38,9.25,8.47c0,5.06-3.75,8.47-9.25,8.47h-7.39V598.65z M487.06,612.91
			c3.78,0,6.21-2.3,6.21-5.82s-2.44-5.82-6.21-5.82h-4.1v11.6h4.1V612.91z"/>
		<path class="st1" d="M515.25,612.94v2.63h-12.7v-16.93h12.36v2.63h-9.21v4.39h8.17v2.6h-8.17v4.67h9.58v0.01L515.25,612.94
			L515.25,612.94z"/>
		<path class="st1" d="M536.57,598.65v16.94h-2.6l-9.32-11.47v11.47h-3.12v-16.94h2.6l9.32,11.47v-11.47H536.57z"/>
		<path class="st1" d="M547.33,601.3h-5.6v-2.65h14.37v2.65h-5.6v14.26h-3.13V601.3H547.33z"/>
		<path class="st1" d="M561.23,598.65h3.13v16.94h-3.13V598.65z"/>
		<path class="st1" d="M575.16,601.3h-5.6v-2.65h14.37v2.65h-5.6v14.26h-3.13V601.3H575.16z"/>
		<path class="st1" d="M596.13,609.61v5.98H593v-5.91l-6.65-11.02h3.35l4.95,8.25l5.01-8.25h3.08L596.13,609.61z"/>
		<path class="st1" d="M615.6,613.79l1.11-2.44c1.37,1.11,3.52,1.85,5.57,1.85c2.63,0,3.75-0.93,3.75-2.2
			c0-3.64-10.06-1.26-10.06-7.55c0-2.74,2.16-5.06,6.8-5.06c2.04,0,4.16,0.53,5.63,1.49l-0.99,2.44c-1.53-0.89-3.19-1.34-4.67-1.34
			c-2.6,0-3.68,1.01-3.68,2.3c0,3.6,10.02,1.26,10.02,7.47c0,2.71-2.2,5.04-6.83,5.04C619.65,615.84,617.02,615,615.6,613.79z"/>
		<path class="st1" d="M647.72,612.94v2.63h-12.7v-16.93h12.36v2.63h-9.21v4.39h8.17v2.6h-8.17v4.67h9.58v0.01L647.72,612.94
			L647.72,612.94z"/>
		<path class="st1" d="M665.07,615.59l-3.46-4.95c-0.22,0.03-0.43,0.03-0.64,0.03h-3.83v4.94h-3.13v-16.95h6.97
			c4.45,0,7.21,2.28,7.21,6.03c0,2.57-1.31,4.45-3.6,5.34l3.89,5.57L665.07,615.59L665.07,615.59z M660.82,601.3h-3.68v6.75h3.68
			c2.76,0,4.19-1.26,4.19-3.38C664.99,602.54,663.58,601.3,660.82,601.3z"/>
		<path class="st1" d="M689.95,598.65l-7.36,16.94h-3.08l-7.41-16.94h3.41l5.63,13.04l5.68-13.04H689.95z"/>
		<path class="st1" d="M694.51,598.65h3.13v16.94h-3.13V598.65z"/>
		<path class="st1" d="M703.8,607.11c0-5.06,3.86-8.71,9.06-8.71c2.76,0,5.12,0.99,6.69,2.84l-2.04,1.9
			c-1.23-1.34-2.76-1.98-4.53-1.98c-3.52,0-6.05,2.46-6.05,5.95c0,3.49,2.56,5.95,6.05,5.95c1.77,0,3.3-0.64,4.53-2.01l2.04,1.93
			c-1.59,1.85-3.94,2.84-6.73,2.84C707.66,615.84,703.8,612.16,703.8,607.11z"/>
		<path class="st1" d="M738.04,612.94v2.63h-12.7v-16.93h12.36v2.63h-9.21v4.39h8.17v2.6h-8.17v4.67h9.58v0.01L738.04,612.94
			L738.04,612.94z"/>
	</g>
</g>
</svg>
