<?xml version="1.0" encoding="utf-8"?>
<!-- Generator: Adobe Adobe Illustrator 24.2.0, SVG Export Plug-In . SVG Version: 6.00 Build 0)  -->
<svg version="1.1" id="Layer_1" xmlns="http://www.w3.org/2000/svg" xmlns:xlink="http://www.w3.org/1999/xlink" x="0px" y="0px"
	 width="1000px" height="1000px" viewBox="0 0 1000 1000" style="enable-background:new 0 0 1000 1000;" xml:space="preserve">
<style type="text/css">
	.st0{fill:#0FE046;}
	.st1{fill:#FFFFFF;}
</style>
<g>
	<g>
		<path d="M331.81,505.94c0-8.92-1.78-12.89-7.25-12.89c-5.93,0-9.12,4.46-9.12,14.88v26.75h-13.89v-51.54h13.38v8.42h0.49
			c0,0,3.48-9.92,13.89-9.92c8.34,0,12.77,3.97,14.76,10l0.09-0.09h0.49c0,0,4.46-9.92,14.88-9.92c12.89,0,16.33,9.41,16.33,21.31
			v31.72h-13.89v-28.73c0-8.92-1.78-12.89-7.22-12.89c-5.93,0-9.12,4.46-9.12,14.88v26.75h-13.89v-28.73L331.81,505.94
			L331.81,505.94z"/>
		<path d="M387.8,463.81c4.37,0,7.93,3.57,7.93,7.93s-3.57,7.93-7.93,7.93c-4.37,0-7.93-3.57-7.93-7.93
			C379.88,467.38,383.45,463.81,387.8,463.81z M394.76,534.67h-13.89v-51.54h13.89V534.67z"/>
		<path d="M451.24,534.67h-13.4v-6.93h-0.49c0,0-4.46,8.42-15.84,8.42c-14.88,0-22.31-12.89-22.31-27.26
			c0-14.39,7.42-27.26,22.31-27.26c10.9,0,15.35,6.93,15.35,6.93h0.49V465.3h13.89L451.24,534.67L451.24,534.67z M425.5,492.05
			c-8.42,0-12.4,7.54-12.4,16.84c0,9.32,3.97,16.84,12.4,16.84s12.4-7.54,12.4-16.84C437.89,499.59,433.9,492.05,425.5,492.05z"/>
		<path d="M481.47,481.64c16.96,0,24.79,12.19,24.79,27.26c0,1.21-0.09,2.99-0.09,2.99H469.7c0.58,7.93,3.97,13.89,12.28,13.89
			c8.42,0,9.92-7.93,9.92-7.93h13.89c0,0-2.99,18.32-24.3,18.32c-17.34,0-25.78-12.19-25.78-27.26
			C455.72,493.83,464.52,481.64,481.47,481.64z M470.08,502.95h21.89c-0.9-6.35-3.65-10.9-10.49-10.9
			C474.64,492.05,471.28,496.62,470.08,502.95z"/>
		<path d="M510.71,483.13h13.4v8.42h0.49c0,0,4.46-9.92,15.84-9.92c14.39,0,18.32,9.41,18.32,21.31v31.72h-13.89v-28.73
			c0-8.92-2.48-12.89-8.92-12.89c-7.42,0-11.4,4.46-11.4,14.88v26.75h-13.89v-51.54L510.71,483.13L510.71,483.13z"/>
		<path d="M587.53,483.13h13.4v8.42h0.49c0,0,4.46-9.92,15.84-9.92c14.39,0,18.32,9.41,18.32,21.31v31.72H621.7v-28.73
			c0-8.92-2.48-12.89-8.92-12.89c-7.42,0-11.4,4.46-11.4,14.88v26.75H587.5v-51.54L587.53,483.13L587.53,483.13z"/>
		<path d="M641.04,498.98c0.78-13.18,11.4-17.34,23.3-17.34c12.4,0,22.31,4.46,22.31,17.83v35.2h-13.89v-9.92h-0.49
			c0,0-3.19,11.4-16.33,11.4c-9.41,0-16.33-4.37-16.33-13.89c0-9.61,7.93-13.97,16.45-16.17c8.62-2.19,16.75-2.87,16.75-8.62
			c0-4.06-2.99-6.44-8.42-6.44c-5.93,0-9.2,2.36-9.41,7.93C654.97,498.98,641.04,498.98,641.04,498.98z M661.86,512.87
			c-4.46,1.09-8.22,3.36-8.22,7.93c0,3.97,2.78,6.44,7.22,6.44c9.41,0,11.9-10.9,11.9-18.55
			C670.49,510.8,665.83,511.86,661.86,512.87z"/>
		<path d="M721.86,505.94c0-8.92-1.78-12.89-7.25-12.89c-5.93,0-9.12,4.46-9.12,14.88v26.75H691.6v-51.54h13.4v8.42h0.49
			c0,0,3.48-9.92,13.89-9.92c8.34,0,12.77,3.97,14.76,10l0.09-0.09h0.49c0,0,4.46-9.92,14.88-9.92c12.89,0,16.33,9.41,16.33,21.31
			v31.72h-13.89v-28.73c0-8.92-1.78-12.89-7.22-12.89c-5.93,0-9.12,4.46-9.12,14.88v26.75H721.8v-28.73L721.86,505.94L721.86,505.94
			z"/>
		<path d="M796.17,481.64c16.96,0,24.79,12.19,24.79,27.26c0,1.21-0.09,2.99-0.09,2.99h-36.49c0.58,7.93,3.97,13.89,12.28,13.89
			c8.42,0,9.92-7.93,9.92-7.93h13.89c0,0-2.99,18.32-24.3,18.32c-17.34,0-25.78-12.19-25.78-27.26
			C770.4,493.83,779.23,481.64,796.17,481.64z M784.77,502.95h21.89c-0.9-6.35-3.65-10.9-10.49-10.9
			C789.32,492.05,785.96,496.62,784.77,502.95z"/>
	</g>
	<g>
		<path class="st0" d="M279.34,508.49v24.64c0,1.66-1.36,3.04-3.04,3.04h-14.67c-1.66,0-3.04-1.36-3.04-3.04v-16.19
			c0-2.01-0.8-3.94-2.22-5.37l-14.33-14.33c-0.9-0.9-2.46-0.27-2.46,1.02v34.88c0,1.66-1.36,3.04-3.04,3.04h-14.67
			c-1.66,0-3.04-1.36-3.04-3.04v-16.19c0-2.01-0.8-3.94-2.22-5.37l-14.33-14.33c-0.9-0.9-2.46-0.27-2.46,1.02v34.88
			c0,1.66-1.36,3.04-3.04,3.04h-14.67c-1.66,0-3.04-1.36-3.04-3.04v-66.23c0-1.66,1.36-3.04,3.04-3.04h14.88
			c0.78,0,1.54,0.32,2.09,0.87L216.33,482c0.9,0.9,2.46,0.27,2.46-1.02v-14.11c0-1.66,1.36-3.04,3.04-3.04h14.88
			c0.78,0,1.54,0.32,2.09,0.87l38.19,38.21C278.51,504.4,279.34,506.4,279.34,508.49z"/>
		<path class="st0" d="M279.34,466.87v22.59c0,1.02-1.24,1.54-1.95,0.8l-17.95-17.95c-0.54-0.54-0.83-1.27-0.83-2.02v-3.41
			c0-1.66,1.36-3.04,3.04-3.04h14.65C277.98,463.83,279.34,465.2,279.34,466.87z"/>
	</g>
</g>
</svg>
